# xmcd
#
# Track frame offsets:
#	150
#	10386
#	21138
#	30028
#	39118
#	51503
#	64159
#	77122
#	89696
#	99629
#	108106
#	119107
#	130139
#	140615
#	151677
#	168032
#	179421
#	191718
#	204746
#	215586
#	225978
#	239422
#	251389
#	262354
#	273828
#
# Disc length: 3808 seconds
#
# Revision: 1
# Processed by: cddbd v1.5.2PL0 Copyright (c) Steve Scherf et al.
# Submitted via: audiograbber 1.83.01
#
DISCID=5b0ede19
DTITLE=Harold Burrage - The Pioneer Of Chichago Soul
DYEAR=1900
DGENRE=
TTITLE0=Crying For My Baby
TTITLE1=What You Don't Know
TTITLE2=You K.O.'d Me
TTITLE3=Great Day In The Morning
TTITLE4=A Fool
TTITLE5=Say You Love Me
TTITLE6=Master Key
TTITLE7=Faith (And Understanding)
TTITLE8=She Knocks Me Out
TTITLE9=A Heart (Filled With Pain)
TTITLE10=That's A Friend
TTITLE11=Everybody's Dancin'
TTITLE12=Baby I'm Alright
TTITLE13=Fifty Fifty
TTITLE14=Got to Find A Way
TTITLE15=How To Fix Your Mouth
TTITLE16=You Make Me So Happy 
TTITLE17=Things Ain't What They Used To Be
TTITLE18=More Power To You
TTITLE19=A Long Way Together
TTITLE20=Take Me Now
TTITLE21=I'm In Love
TTITLE22=You Mean The World To Me
TTITLE23=Hang My Head And Cry
TTITLE24=Mr. Window
EXTD=
EXTT0=
EXTT1=
EXTT2=
EXTT3=
EXTT4=
EXTT5=
EXTT6=
EXTT7=
EXTT8=
EXTT9=
EXTT10=
EXTT11=
EXTT12=
EXTT13=
EXTT14=
EXTT15=
EXTT16=
EXTT17=
EXTT18=
EXTT19=
EXTT20=
EXTT21=
EXTT22=
EXTT23=
EXTT24=
PLAYORDER=
